<svg width="175" height="171" viewBox="0 0 175 171" fill="none" xmlns="http://www.w3.org/2000/svg">
<path fill-rule="evenodd" clip-rule="evenodd" d="M87.7894 0C39.2126 0 0 39.2126 0 87.7894C0 126.417 25.1663 159.191 60.282 170.897C64.9641 171.482 66.1347 169.141 66.1347 166.8V151.583C41.5536 156.85 36.2863 139.878 36.2863 139.878C32.1894 129.928 26.3368 127.002 26.3368 127.002C18.1431 121.735 26.9221 121.735 26.9221 121.735C35.701 122.32 40.3831 130.514 40.3831 130.514C47.9915 143.975 60.8673 139.878 66.1347 137.537C66.7199 131.684 69.061 128.173 71.9873 125.831C52.6736 123.49 32.1894 115.882 32.1894 82.522C32.1894 73.1578 35.701 64.9642 40.9684 59.1115C39.7979 56.7705 36.8715 47.9915 41.5536 35.701C41.5536 35.701 49.1621 33.36 65.5494 44.48C72.5726 42.7242 80.181 41.5536 87.7894 41.5536C95.3978 41.5536 103.006 42.7242 110.029 44.48C127.002 33.36 134.025 35.701 134.025 35.701C138.707 47.9915 135.781 56.7705 134.61 59.1115C140.463 64.9642 143.389 73.1578 143.389 82.522C143.389 116.467 122.905 123.49 103.591 125.831C106.518 128.758 109.444 134.025 109.444 142.219V166.215C109.444 168.556 111.2 171.482 115.297 170.311C150.413 158.606 174.994 125.831 174.994 87.2041C175.579 39.2126 136.366 0 87.7894 0Z" fill="#181616"/>
</svg>
