<svg width="127" height="24" viewBox="0 0 127 24" fill="none" xmlns="http://www.w3.org/2000/svg">
<path d="M13.2852 6.31641C13.2852 8.23047 12.7188 9.71094 11.5859 10.7578C10.4609 11.7969 8.85938 12.3164 6.78125 12.3164H5.48047V18H0.851562V0.867188H6.78125C8.94531 0.867188 10.5703 1.33984 11.6562 2.28516C12.7422 3.23047 13.2852 4.57422 13.2852 6.31641ZM5.48047 8.54297H6.32422C7.01953 8.54297 7.57031 8.34766 7.97656 7.95703C8.39062 7.56641 8.59766 7.02734 8.59766 6.33984C8.59766 5.18359 7.95703 4.60547 6.67578 4.60547H5.48047V8.54297ZM24.4062 18L23.5273 16.2422H23.4336C22.8164 17.0078 22.1875 17.5312 21.5469 17.8125C20.9062 18.0938 20.0781 18.2344 19.0625 18.2344C17.8125 18.2344 16.8281 17.8594 16.1094 17.1094C15.3906 16.3594 15.0312 15.3047 15.0312 13.9453C15.0312 12.5312 15.5234 11.4805 16.5078 10.793C17.4922 10.0977 18.918 9.70703 20.7852 9.62109L23 9.55078V9.36328C23 8.26953 22.4609 7.72266 21.3828 7.72266C20.4141 7.72266 19.1836 8.05078 17.6914 8.70703L16.3672 5.68359C17.9141 4.88672 19.8672 4.48828 22.2266 4.48828C23.9297 4.48828 25.2461 4.91016 26.1758 5.75391C27.1133 6.59766 27.582 7.77734 27.582 9.29297V18H24.4062ZM21.0078 15C21.5625 15 22.0352 14.8242 22.4258 14.4727C22.8242 14.1211 23.0234 13.6641 23.0234 13.1016V12.0703L21.9688 12.1172C20.4609 12.1719 19.707 12.7266 19.707 13.7812C19.707 14.5938 20.1406 15 21.0078 15ZM38.668 18.2344C37.9961 18.2344 37.3945 18.125 36.8633 17.9062C36.332 17.6797 35.8047 17.2773 35.2812 16.6992H35.0703C35.2109 17.6289 35.2812 18.207 35.2812 18.4336V23.7656H30.6992V4.72266H34.4258L35.0703 6.41016H35.2812C36.1328 5.12891 37.3086 4.48828 38.8086 4.48828C40.2773 4.48828 41.4297 5.09766 42.2656 6.31641C43.1016 7.53516 43.5195 9.20703 43.5195 11.332C43.5195 13.4727 43.082 15.1602 42.207 16.3945C41.3398 17.6211 40.1602 18.2344 38.668 18.2344ZM37.1328 8.08594C36.4609 8.08594 35.9883 8.32812 35.7148 8.8125C35.4492 9.28906 35.3047 10 35.2812 10.9453V11.3086C35.2812 12.4492 35.4336 13.2734 35.7383 13.7812C36.043 14.2891 36.5234 14.543 37.1797 14.543C37.7656 14.543 38.1914 14.293 38.457 13.793C38.7227 13.2852 38.8555 12.4492 38.8555 11.2852C38.8555 10.1445 38.7227 9.32812 38.457 8.83594C38.1914 8.33594 37.75 8.08594 37.1328 8.08594ZM52.5547 18.2344C50.3438 18.2344 48.625 17.6484 47.3984 16.4766C46.1797 15.2969 45.5703 13.6211 45.5703 11.4492C45.5703 9.20703 46.1367 7.48828 47.2695 6.29297C48.4023 5.08984 50.0195 4.48828 52.1211 4.48828C54.1211 4.48828 55.6641 5.01172 56.75 6.05859C57.8438 7.09766 58.3906 8.59766 58.3906 10.5586V12.5977H50.1992C50.2305 13.3398 50.5 13.9219 51.0078 14.3438C51.5234 14.7656 52.2227 14.9766 53.1055 14.9766C53.9102 14.9766 54.6484 14.9023 55.3203 14.7539C56 14.5977 56.7344 14.3359 57.5234 13.9688V17.2617C56.8047 17.6289 56.0625 17.8828 55.2969 18.0234C54.5312 18.1641 53.6172 18.2344 52.5547 18.2344ZM52.2852 7.60547C51.7461 7.60547 51.293 7.77734 50.9258 8.12109C50.5664 8.45703 50.3555 8.98828 50.293 9.71484H54.2305C54.2148 9.07422 54.0312 8.5625 53.6797 8.17969C53.3359 7.79688 52.8711 7.60547 52.2852 7.60547ZM68.9961 4.48828C69.3945 4.48828 69.7734 4.51953 70.1328 4.58203L70.3906 4.62891L69.9805 8.95312C69.6055 8.85938 69.0859 8.8125 68.4219 8.8125C67.4219 8.8125 66.6953 9.04297 66.2422 9.50391C65.7891 9.95703 65.5625 10.6133 65.5625 11.4727V18H60.9805V4.72266H64.3906L65.1055 6.84375H65.3281C65.7109 6.14062 66.2422 5.57422 66.9219 5.14453C67.6094 4.70703 68.3008 4.48828 68.9961 4.48828ZM78.3008 18.2344C76.1289 18.2344 74.4805 17.6484 73.3555 16.4766C72.2383 15.3047 71.6797 13.6211 71.6797 11.4258C71.6797 9.22266 72.2852 7.51562 73.4961 6.30469C74.707 5.09375 76.4297 4.48828 78.6641 4.48828C80.2031 4.48828 81.6523 4.82422 83.0117 5.49609L81.6641 8.88281C81.1094 8.64062 80.5977 8.44922 80.1289 8.30859C79.6602 8.16016 79.1719 8.08594 78.6641 8.08594C77.9219 8.08594 77.3477 8.375 76.9414 8.95312C76.5352 9.53125 76.332 10.3477 76.332 11.4023C76.332 13.5273 77.1172 14.5898 78.6875 14.5898C80.0312 14.5898 81.3203 14.1992 82.5547 13.418V17.0625C81.375 17.8438 79.957 18.2344 78.3008 18.2344ZM94.6484 18L94.0742 16.3477H93.8047C93.4219 16.957 92.8867 17.4258 92.1992 17.7539C91.5195 18.0742 90.7188 18.2344 89.7969 18.2344C88.3359 18.2344 87.1992 17.8125 86.3867 16.9688C85.5742 16.1172 85.168 14.918 85.168 13.3711V4.72266H89.75V11.9766C89.75 12.8438 89.8711 13.5 90.1133 13.9453C90.3633 14.3906 90.7695 14.6133 91.332 14.6133C92.1211 14.6133 92.6836 14.3047 93.0195 13.6875C93.3555 13.0625 93.5234 12.0117 93.5234 10.5352V4.72266H98.1055V18H94.6484ZM109.238 18.2344C108.566 18.2344 107.965 18.125 107.434 17.9062C106.902 17.6797 106.375 17.2773 105.852 16.6992H105.641C105.781 17.6289 105.852 18.207 105.852 18.4336V23.7656H101.27V4.72266H104.996L105.641 6.41016H105.852C106.703 5.12891 107.879 4.48828 109.379 4.48828C110.848 4.48828 112 5.09766 112.836 6.31641C113.672 7.53516 114.09 9.20703 114.09 11.332C114.09 13.4727 113.652 15.1602 112.777 16.3945C111.91 17.6211 110.73 18.2344 109.238 18.2344ZM107.703 8.08594C107.031 8.08594 106.559 8.32812 106.285 8.8125C106.02 9.28906 105.875 10 105.852 10.9453V11.3086C105.852 12.4492 106.004 13.2734 106.309 13.7812C106.613 14.2891 107.094 14.543 107.75 14.543C108.336 14.543 108.762 14.293 109.027 13.793C109.293 13.2852 109.426 12.4492 109.426 11.2852C109.426 10.1445 109.293 9.32812 109.027 8.83594C108.762 8.33594 108.32 8.08594 107.703 8.08594ZM126.969 13.9219C126.969 15.3438 126.484 16.418 125.516 17.1445C124.547 17.8711 123.156 18.2344 121.344 18.2344C120.359 18.2344 119.504 18.1797 118.777 18.0703C118.051 17.9688 117.309 17.7773 116.551 17.4961V13.8281C117.262 14.1406 118.039 14.3984 118.883 14.6016C119.734 14.8047 120.492 14.9062 121.156 14.9062C122.148 14.9062 122.645 14.6797 122.645 14.2266C122.645 13.9922 122.504 13.7852 122.223 13.6055C121.949 13.418 121.145 13.0586 119.809 12.5273C118.59 12.0273 117.738 11.4609 117.254 10.8281C116.77 10.1875 116.527 9.37891 116.527 8.40234C116.527 7.16797 117.004 6.20703 117.957 5.51953C118.91 4.83203 120.258 4.48828 122 4.48828C122.875 4.48828 123.695 4.58594 124.461 4.78125C125.234 4.96875 126.035 5.24609 126.863 5.61328L125.621 8.56641C125.012 8.29297 124.367 8.0625 123.688 7.875C123.008 7.67969 122.453 7.58203 122.023 7.58203C121.273 7.58203 120.898 7.76562 120.898 8.13281C120.898 8.35938 121.027 8.55469 121.285 8.71875C121.551 8.875 122.309 9.19922 123.559 9.69141C124.488 10.0742 125.18 10.4492 125.633 10.8164C126.094 11.1836 126.43 11.6172 126.641 12.1172C126.859 12.6094 126.969 13.2109 126.969 13.9219Z" fill="#639AFF"/>
</svg>
