<svg width="175" height="175" viewBox="0 0 175 175" fill="none" xmlns="http://www.w3.org/2000/svg">
<path fill-rule="evenodd" clip-rule="evenodd" d="M64.1667 0C61.8661 0.00213198 59.5885 0.456523 57.464 1.33722C55.3394 2.21792 53.4095 3.50768 51.7844 5.13284C50.1593 6.758 48.871 8.68672 47.9929 10.8089C47.1147 12.931 46.6641 15.205 46.6667 17.501C46.6645 19.7967 47.1155 22.0703 47.9938 24.1921C48.8721 26.3139 50.1605 28.2422 51.7856 29.867C53.4106 31.4918 55.3404 32.7813 57.4647 33.6618C59.5891 34.5423 61.8664 34.9966 64.1667 34.9987H81.6667V17.501C81.6692 15.205 81.2186 12.931 80.3405 10.8089C79.4624 8.68672 78.174 6.758 76.5489 5.13284C74.9239 3.50768 72.9939 2.21792 70.8694 1.33722C68.7448 0.456523 66.4672 0.00213198 64.1667 0V0ZM64.1667 46.6682H17.5C15.1997 46.6703 12.9224 47.1246 10.7981 48.0051C8.6737 48.8856 6.74392 50.1751 5.1189 51.7999C3.49387 53.4247 2.20543 55.353 1.32713 57.4748C0.448827 59.5966 -0.00212749 61.8702 1.08984e-05 64.1659C-0.00255528 66.4619 0.448084 68.7359 1.32619 70.858C2.2043 72.9802 3.49268 74.9089 5.11775 76.534C6.74281 78.1592 8.67274 79.449 10.7973 80.3297C12.9219 81.2104 15.1995 81.6647 17.5 81.6669H64.1667C66.4672 81.6647 68.7448 81.2104 70.8694 80.3297C72.9939 79.449 74.9239 78.1592 76.5489 76.534C78.174 74.9089 79.4624 72.9802 80.3405 70.858C81.2186 68.7359 81.6692 66.4619 81.6667 64.1659C81.6688 61.8702 81.2179 59.5966 80.3396 57.4748C79.4613 55.353 78.1728 53.4247 76.5478 51.7999C74.9228 50.1751 72.993 48.8856 70.8686 48.0051C68.7443 47.1246 66.4669 46.6703 64.1667 46.6682" fill="#36C5F0"/>
<path fill-rule="evenodd" clip-rule="evenodd" d="M175 64.1659C175.002 61.8702 174.551 59.5966 173.673 57.4748C172.795 55.353 171.506 53.4247 169.881 51.7999C168.256 50.1751 166.326 48.8856 164.202 48.0051C162.078 47.1246 159.8 46.6703 157.5 46.6682C155.2 46.6703 152.922 47.1246 150.798 48.0051C148.674 48.8856 146.744 50.1751 145.119 51.7999C143.494 53.4247 142.205 55.353 141.327 57.4748C140.449 59.5966 139.998 61.8702 140 64.1659V81.6669H157.5C159.801 81.6647 162.078 81.2104 164.203 80.3297C166.327 79.449 168.257 78.1592 169.882 76.534C171.507 74.9089 172.796 72.9802 173.674 70.858C174.552 68.7359 175.003 66.4619 175 64.1659ZM128.333 64.1659V17.501C128.336 15.205 127.885 12.931 127.007 10.8089C126.129 8.68672 124.841 6.758 123.216 5.13284C121.591 3.50768 119.661 2.21792 117.536 1.33722C115.411 0.456523 113.134 0.00213198 110.833 0C108.533 0.00213198 106.255 0.456523 104.131 1.33722C102.006 2.21792 100.076 3.50768 98.4511 5.13284C96.826 6.758 95.5376 8.68672 94.6595 10.8089C93.7814 12.931 93.3308 15.205 93.3333 17.501V64.1659C93.3308 66.4619 93.7814 68.7359 94.6595 70.858C95.5376 72.9802 96.826 74.9089 98.4511 76.534C100.076 78.1592 102.006 79.449 104.131 80.3297C106.255 81.2104 108.533 81.6647 110.833 81.6669C113.134 81.6647 115.411 81.2104 117.536 80.3297C119.661 79.449 121.591 78.1592 123.216 76.534C124.841 74.9089 126.129 72.9802 127.007 70.858C127.885 68.7359 128.336 66.4619 128.333 64.1659" fill="#2EB67D"/>
<path fill-rule="evenodd" clip-rule="evenodd" d="M110.833 175C113.134 174.998 115.411 174.543 117.536 173.663C119.661 172.782 121.591 171.492 123.216 169.867C124.841 168.242 126.129 166.313 127.007 164.191C127.885 162.069 128.336 159.795 128.333 157.499C128.335 155.203 127.885 152.93 127.006 150.808C126.128 148.686 124.839 146.758 123.214 145.133C121.589 143.508 119.66 142.219 117.535 141.338C115.411 140.458 113.134 140.003 110.833 140.001H93.3333V157.499C93.3308 159.795 93.7814 162.069 94.6595 164.191C95.5376 166.313 96.826 168.242 98.4511 169.867C100.076 171.492 102.006 172.782 104.131 173.663C106.255 174.543 108.533 174.998 110.833 175ZM110.833 128.332H157.5C159.8 128.33 162.078 127.875 164.202 126.995C166.326 126.114 168.256 124.825 169.881 123.2C171.506 121.575 172.795 119.647 173.673 117.525C174.551 115.403 175.002 113.13 175 110.834C175.003 108.538 174.552 106.264 173.674 104.142C172.796 102.02 171.507 100.091 169.882 98.4659C168.257 96.8408 166.327 95.551 164.203 94.6703C162.078 93.7896 159.801 93.3352 157.5 93.3331H110.833C108.533 93.3352 106.255 93.7896 104.131 94.6703C102.006 95.551 100.076 96.8408 98.4511 98.4659C96.826 100.091 95.5376 102.02 94.6595 104.142C93.7814 106.264 93.3308 108.538 93.3333 110.834C93.3312 113.13 93.7821 115.403 94.6604 117.525C95.5387 119.647 96.8272 121.575 98.4522 123.2C100.077 124.825 102.007 126.114 104.131 126.995C106.256 127.875 108.533 128.33 110.833 128.332" fill="#ECB22E"/>
<path fill-rule="evenodd" clip-rule="evenodd" d="M1.48323e-05 110.834C-0.00212356 113.13 0.448831 115.403 1.32713 117.525C2.20543 119.647 3.49388 121.575 5.1189 123.2C6.74393 124.825 8.67371 126.114 10.7981 126.995C12.9224 127.875 15.1997 128.33 17.5 128.332C19.8003 128.33 22.0776 127.875 24.202 126.995C26.3263 126.114 28.2561 124.825 29.8811 123.2C31.5062 121.575 32.7946 119.647 33.6729 117.525C34.5512 115.403 35.0022 113.13 35 110.834V93.3331H17.5C15.1992 93.3352 12.9213 93.7897 10.7966 94.6706C8.67178 95.5515 6.74171 96.8416 5.1166 98.4671C3.49149 100.093 2.20318 102.022 1.32526 104.144C0.447344 106.267 -0.00297923 108.541 1.48323e-05 110.837V110.834ZM46.6667 110.834V157.499C46.6641 159.795 47.1147 162.069 47.9929 164.191C48.871 166.313 50.1593 168.242 51.7844 169.867C53.4095 171.492 55.3394 172.782 57.464 173.663C59.5885 174.543 61.8661 174.998 64.1667 175C66.4672 174.998 68.7448 174.543 70.8694 173.663C72.9939 172.782 74.9239 171.492 76.5489 169.867C78.174 168.242 79.4624 166.313 80.3405 164.191C81.2186 162.069 81.6692 159.795 81.6667 157.499V110.837C81.6692 108.541 81.2186 106.267 80.3405 104.145C79.4624 102.023 78.174 100.094 76.5489 98.4692C74.9239 96.844 72.9939 95.5543 70.8694 94.6736C68.7448 93.7929 66.4672 93.3385 64.1667 93.3364C61.8661 93.3385 59.5885 93.7929 57.464 94.6736C55.3394 95.5543 53.4095 96.844 51.7844 98.4692C50.1593 100.094 48.871 102.023 47.9929 104.145C47.1147 106.267 46.6641 108.541 46.6667 110.837" fill="#E01E5A"/>
</svg>
